# xmcd
#
# Track frame offsets:
#  150
#  33436
#  53686
#  79636
#  111416
#  154324
#  191010
#
# Disc length: 2868 seconds
#
# Revision: 0
# Processed by: cddbd v1.5.1PL2 Copyright (c) Steve Scherf et al.
# Submitted via: Collectorz.com Music Collector 6.9
#
DISCID=550b3207
DTITLE=John Mayall - The Turning Point
DYEAR=1969
DGENRE=Blues-Rock - British Blues
TTITLE0=The laws must change
TTITLE1=Saw mill gulch road
TTITLE2=I'm gonna fight for you J.B.
TTITLE3=So hard to share
TTITLE4=California
TTITLE5=Room to move
TTITLE6=Thoughts about Roxanne
EXTD=
EXTT0=
EXTT1=
EXTT2=
EXTT3=
EXTT4=
EXTT5=
EXTT6=
PLAYORDER=
